<mxfile host="app.diagrams.net" modified="2020-11-26T05:26:50.287Z" agent="5.0 (Macintosh; Intel Mac OS X 10_15_4) AppleWebKit/537.36 (KHTML, like Gecko) Chrome/87.0.4280.67 Safari/537.36" etag="akJctgzQMQTxMef0SwpO" version="13.10.2" type="github">
  <diagram id="G97Qoah6XVNjPo1dwr63" name="Page-1">
    <mxGraphModel dx="1288" dy="743" grid="1" gridSize="10" guides="1" tooltips="1" connect="1" arrows="1" fold="1" page="1" pageScale="1" pageWidth="1169" pageHeight="827" math="0" shadow="0">
      <root>
        <mxCell id="0" />
        <mxCell id="1" parent="0" />
        <mxCell id="9iAkGkI4huCNu9PkeYiP-83" style="edgeStyle=orthogonalEdgeStyle;curved=0;rounded=1;sketch=0;orthogonalLoop=1;jettySize=auto;html=1;exitX=0.25;exitY=1;exitDx=0;exitDy=0;entryX=0;entryY=0.25;entryDx=0;entryDy=0;startSize=30;strokeColor=#788AA3;fillColor=#B2C9AB;fontSize=14;fontColor=#46495D;" edge="1" parent="1" source="9iAkGkI4huCNu9PkeYiP-7" target="9iAkGkI4huCNu9PkeYiP-10">
          <mxGeometry relative="1" as="geometry" />
        </mxCell>
        <mxCell id="9iAkGkI4huCNu9PkeYiP-7" value="home.jsp" style="swimlane;childLayout=stackLayout;horizontal=1;startSize=30;horizontalStack=0;rounded=1;fontSize=14;fontStyle=0;strokeWidth=2;resizeParent=0;resizeLast=1;shadow=0;dashed=0;align=center;fillColor=#B2C9AB;strokeColor=#788AA3;fontColor=#46495D;" vertex="1" parent="1">
          <mxGeometry x="20" y="80" width="160" height="130" as="geometry" />
        </mxCell>
        <mxCell id="9iAkGkI4huCNu9PkeYiP-9" value="UnizHitController.java" style="swimlane;childLayout=stackLayout;horizontal=1;startSize=30;horizontalStack=0;rounded=1;fontSize=14;fontStyle=0;strokeWidth=2;resizeParent=0;resizeLast=1;shadow=0;dashed=0;align=center;fillColor=#B2C9AB;strokeColor=#788AA3;fontColor=#46495D;" vertex="1" parent="1">
          <mxGeometry x="190" y="260" width="160" height="120" as="geometry" />
        </mxCell>
        <mxCell id="9iAkGkI4huCNu9PkeYiP-10" value="unizHitView()&#xa;getHitList()&#xa;videoList()" style="align=left;strokeColor=none;fillColor=none;spacingLeft=4;fontSize=15;verticalAlign=middle;resizable=0;rotatable=0;part=1;fontColor=#46495D;" vertex="1" parent="9iAkGkI4huCNu9PkeYiP-9">
          <mxGeometry y="30" width="160" height="90" as="geometry" />
        </mxCell>
        <mxCell id="9iAkGkI4huCNu9PkeYiP-11" value="&lt;font style=&quot;font-size: 19px&quot;&gt;인기 화면&lt;/font&gt;" style="rounded=1;arcSize=10;whiteSpace=wrap;html=1;align=center;fillColor=#B2C9AB;strokeColor=#788AA3;fontColor=#46495D;" vertex="1" parent="1">
          <mxGeometry x="20" y="20" width="160" height="40" as="geometry" />
        </mxCell>
        <mxCell id="9iAkGkI4huCNu9PkeYiP-19" value="인기" style="whiteSpace=wrap;html=1;fillColor=#B2C9AB;strokeColor=#788AA3;fontColor=#46495D;" vertex="1" parent="1">
          <mxGeometry x="40" y="130" width="50" height="20" as="geometry" />
        </mxCell>
        <mxCell id="9iAkGkI4huCNu9PkeYiP-23" value="/UnizHit/UnizHit" style="text;html=1;align=center;verticalAlign=middle;resizable=0;points=[];autosize=1;fontColor=#46495D;" vertex="1" parent="1">
          <mxGeometry x="70" y="290" width="100" height="20" as="geometry" />
        </mxCell>
        <mxCell id="9iAkGkI4huCNu9PkeYiP-85" style="edgeStyle=orthogonalEdgeStyle;curved=0;rounded=1;sketch=0;orthogonalLoop=1;jettySize=auto;html=1;exitX=1;exitY=0.5;exitDx=0;exitDy=0;entryX=0;entryY=0.5;entryDx=0;entryDy=0;startSize=30;strokeColor=#788AA3;fillColor=#B2C9AB;fontSize=14;fontColor=#46495D;" edge="1" parent="1" source="9iAkGkI4huCNu9PkeYiP-26" target="9iAkGkI4huCNu9PkeYiP-49">
          <mxGeometry relative="1" as="geometry" />
        </mxCell>
        <mxCell id="9iAkGkI4huCNu9PkeYiP-93" style="edgeStyle=orthogonalEdgeStyle;curved=0;rounded=1;sketch=0;orthogonalLoop=1;jettySize=auto;html=1;exitX=0.75;exitY=0;exitDx=0;exitDy=0;entryX=0;entryY=0.75;entryDx=0;entryDy=0;startSize=30;strokeColor=#788AA3;fillColor=#B2C9AB;fontSize=14;fontColor=#46495D;" edge="1" parent="1" source="9iAkGkI4huCNu9PkeYiP-26" target="9iAkGkI4huCNu9PkeYiP-10">
          <mxGeometry relative="1" as="geometry" />
        </mxCell>
        <object label="unizHitMain.jsp" id="9iAkGkI4huCNu9PkeYiP-26">
          <mxCell style="swimlane;childLayout=stackLayout;horizontal=1;startSize=30;horizontalStack=0;rounded=1;fontSize=14;fontStyle=0;strokeWidth=2;resizeParent=0;resizeLast=1;shadow=0;dashed=0;align=center;fillColor=#B2C9AB;strokeColor=#788AA3;fontColor=#46495D;swimlaneLine=1;aspect=fixed;flipH=1;flipV=0;" vertex="1" parent="1">
            <mxGeometry x="20" y="472.5" width="160" height="120" as="geometry" />
          </mxCell>
        </object>
        <mxCell id="9iAkGkI4huCNu9PkeYiP-36" value="" style="shape=process;whiteSpace=wrap;html=1;backgroundOutline=1;strokeColor=#788AA3;fillColor=#97D077;fontSize=15;fontColor=#46495D;" vertex="1" parent="1">
          <mxGeometry x="555" y="290" width="160" as="geometry" />
        </mxCell>
        <mxCell id="9iAkGkI4huCNu9PkeYiP-47" value="" style="whiteSpace=wrap;html=1;rounded=1;shadow=0;dashed=0;startSize=30;strokeColor=#788AA3;strokeWidth=2;fillColor=#B2C9AB;fontSize=14;fontColor=#46495D;" vertex="1" parent="1">
          <mxGeometry x="35.5" y="512.5" width="70" height="40" as="geometry" />
        </mxCell>
        <mxCell id="9iAkGkI4huCNu9PkeYiP-48" value="" style="triangle;whiteSpace=wrap;html=1;rounded=1;shadow=0;dashed=0;startSize=30;strokeColor=#b85450;strokeWidth=2;fillColor=#f8cecc;fontSize=14;" vertex="1" parent="1">
          <mxGeometry x="55.5" y="512.5" width="40" height="40" as="geometry" />
        </mxCell>
        <mxCell id="9iAkGkI4huCNu9PkeYiP-86" style="edgeStyle=orthogonalEdgeStyle;curved=0;rounded=1;sketch=0;orthogonalLoop=1;jettySize=auto;html=1;exitX=0;exitY=0;exitDx=0;exitDy=0;entryX=0;entryY=0.5;entryDx=0;entryDy=0;startSize=30;strokeColor=#788AA3;fillColor=#B2C9AB;fontSize=14;fontColor=#46495D;" edge="1" parent="1" source="9iAkGkI4huCNu9PkeYiP-49" target="9iAkGkI4huCNu9PkeYiP-10">
          <mxGeometry relative="1" as="geometry" />
        </mxCell>
        <object label="unizHit.js" id="9iAkGkI4huCNu9PkeYiP-49">
          <mxCell style="swimlane;childLayout=stackLayout;horizontal=1;startSize=30;horizontalStack=0;rounded=1;fontSize=14;fontStyle=0;strokeWidth=2;resizeParent=0;resizeLast=1;shadow=0;dashed=0;align=center;fillColor=#B2C9AB;strokeColor=#788AA3;fontColor=#46495D;swimlaneLine=1;aspect=fixed;flipH=1;flipV=0;" vertex="1" parent="1">
            <mxGeometry x="280" y="472.5" width="160" height="120" as="geometry" />
          </mxCell>
        </object>
        <mxCell id="9iAkGkI4huCNu9PkeYiP-58" value="UnizHitServiuce" style="swimlane;childLayout=stackLayout;horizontal=1;startSize=30;horizontalStack=0;rounded=1;fontSize=14;fontStyle=0;strokeWidth=2;resizeParent=0;resizeLast=1;shadow=0;dashed=0;align=center;fillColor=#B2C9AB;strokeColor=#788AA3;fontColor=#46495D;" vertex="1" parent="1">
          <mxGeometry x="460" y="260" width="160" height="120" as="geometry" />
        </mxCell>
        <mxCell id="9iAkGkI4huCNu9PkeYiP-59" value="getHitList()&#xa;getVideo()" style="align=left;strokeColor=none;fillColor=none;spacingLeft=4;fontSize=15;verticalAlign=middle;resizable=0;rotatable=0;part=1;fontColor=#46495D;" vertex="1" parent="9iAkGkI4huCNu9PkeYiP-58">
          <mxGeometry y="30" width="160" height="90" as="geometry" />
        </mxCell>
        <mxCell id="9iAkGkI4huCNu9PkeYiP-61" value="UnizHitMapper" style="swimlane;childLayout=stackLayout;horizontal=1;startSize=30;horizontalStack=0;rounded=1;fontSize=14;fontStyle=0;strokeWidth=2;resizeParent=0;resizeLast=1;shadow=0;dashed=0;align=center;fillColor=#B2C9AB;strokeColor=#788AA3;fontColor=#46495D;" vertex="1" parent="1">
          <mxGeometry x="715" y="260" width="160" height="120" as="geometry" />
        </mxCell>
        <mxCell id="9iAkGkI4huCNu9PkeYiP-62" value="getHitList()&#xa;getVideo()" style="align=left;strokeColor=none;fillColor=none;spacingLeft=4;fontSize=15;verticalAlign=middle;resizable=0;rotatable=0;part=1;fontColor=#46495D;" vertex="1" parent="9iAkGkI4huCNu9PkeYiP-61">
          <mxGeometry y="30" width="160" height="90" as="geometry" />
        </mxCell>
        <mxCell id="9iAkGkI4huCNu9PkeYiP-64" value="DB&lt;br&gt;&lt;br&gt;&lt;br&gt;&lt;br&gt;VideoData&lt;br&gt;&lt;br&gt;&lt;br&gt;&lt;br&gt;" style="shape=cylinder3;whiteSpace=wrap;html=1;boundedLbl=1;backgroundOutline=1;size=15;rounded=1;shadow=0;dashed=0;startSize=30;strokeColor=#788AA3;strokeWidth=2;fillColor=#B2C9AB;fontSize=14;fontColor=#46495D;" vertex="1" parent="1">
          <mxGeometry x="1020" y="260" width="100" height="130" as="geometry" />
        </mxCell>
        <mxCell id="9iAkGkI4huCNu9PkeYiP-65" style="edgeStyle=orthogonalEdgeStyle;curved=0;rounded=1;sketch=0;orthogonalLoop=1;jettySize=auto;html=1;exitX=1;exitY=0.25;exitDx=0;exitDy=0;entryX=-0.02;entryY=0.426;entryDx=0;entryDy=0;entryPerimeter=0;startSize=30;strokeColor=#788AA3;fillColor=#B2C9AB;fontSize=14;fontColor=#46495D;" edge="1" parent="1" source="9iAkGkI4huCNu9PkeYiP-62" target="9iAkGkI4huCNu9PkeYiP-64">
          <mxGeometry relative="1" as="geometry" />
        </mxCell>
        <mxCell id="9iAkGkI4huCNu9PkeYiP-67" value="VideoDetail" style="swimlane;childLayout=stackLayout;horizontal=1;startSize=30;horizontalStack=0;rounded=1;fontSize=14;fontStyle=0;strokeWidth=2;resizeParent=0;resizeLast=1;shadow=0;dashed=0;align=center;fillColor=#B2C9AB;strokeColor=#788AA3;fontColor=#46495D;" vertex="1" parent="1">
          <mxGeometry x="530" y="472.5" width="160" height="120" as="geometry" />
        </mxCell>
        <mxCell id="9iAkGkI4huCNu9PkeYiP-71" style="edgeStyle=orthogonalEdgeStyle;curved=0;rounded=1;sketch=0;orthogonalLoop=1;jettySize=auto;html=1;exitX=1;exitY=0.75;exitDx=0;exitDy=0;entryX=-0.04;entryY=0.765;entryDx=0;entryDy=0;entryPerimeter=0;startSize=30;strokeColor=#788AA3;fillColor=#B2C9AB;fontSize=14;fontColor=#46495D;" edge="1" parent="1" source="9iAkGkI4huCNu9PkeYiP-62" target="9iAkGkI4huCNu9PkeYiP-64">
          <mxGeometry relative="1" as="geometry" />
        </mxCell>
        <mxCell id="9iAkGkI4huCNu9PkeYiP-80" style="edgeStyle=orthogonalEdgeStyle;curved=0;rounded=1;sketch=0;orthogonalLoop=1;jettySize=auto;html=1;exitX=1.006;exitY=0.4;exitDx=0;exitDy=0;startSize=30;strokeColor=#788AA3;fillColor=#B2C9AB;fontSize=14;fontColor=#46495D;exitPerimeter=0;entryX=0;entryY=0.4;entryDx=0;entryDy=0;entryPerimeter=0;" edge="1" parent="1" source="9iAkGkI4huCNu9PkeYiP-59" target="9iAkGkI4huCNu9PkeYiP-62">
          <mxGeometry relative="1" as="geometry" />
        </mxCell>
        <mxCell id="9iAkGkI4huCNu9PkeYiP-84" style="edgeStyle=orthogonalEdgeStyle;curved=0;rounded=1;sketch=0;orthogonalLoop=1;jettySize=auto;html=1;exitX=0;exitY=0.25;exitDx=0;exitDy=0;entryX=0.25;entryY=0;entryDx=0;entryDy=0;startSize=30;strokeColor=#788AA3;fillColor=#B2C9AB;fontSize=14;fontColor=#46495D;" edge="1" parent="1" source="9iAkGkI4huCNu9PkeYiP-10" target="9iAkGkI4huCNu9PkeYiP-26">
          <mxGeometry relative="1" as="geometry" />
        </mxCell>
        <mxCell id="9iAkGkI4huCNu9PkeYiP-87" style="edgeStyle=orthogonalEdgeStyle;curved=0;rounded=1;sketch=0;orthogonalLoop=1;jettySize=auto;html=1;exitX=1;exitY=0.5;exitDx=0;exitDy=0;entryX=0;entryY=0.333;entryDx=0;entryDy=0;entryPerimeter=0;startSize=30;strokeColor=#788AA3;fillColor=#B2C9AB;fontSize=14;fontColor=#46495D;" edge="1" parent="1" source="9iAkGkI4huCNu9PkeYiP-10" target="9iAkGkI4huCNu9PkeYiP-59">
          <mxGeometry relative="1" as="geometry" />
        </mxCell>
        <mxCell id="9iAkGkI4huCNu9PkeYiP-88" style="edgeStyle=orthogonalEdgeStyle;curved=0;rounded=1;sketch=0;orthogonalLoop=1;jettySize=auto;html=1;exitX=1;exitY=0.75;exitDx=0;exitDy=0;entryX=0;entryY=0.75;entryDx=0;entryDy=0;startSize=30;strokeColor=#788AA3;fillColor=#B2C9AB;fontSize=14;fontColor=#46495D;" edge="1" parent="1" source="9iAkGkI4huCNu9PkeYiP-10" target="9iAkGkI4huCNu9PkeYiP-58">
          <mxGeometry relative="1" as="geometry" />
        </mxCell>
        <mxCell id="9iAkGkI4huCNu9PkeYiP-89" style="edgeStyle=orthogonalEdgeStyle;curved=0;rounded=1;sketch=0;orthogonalLoop=1;jettySize=auto;html=1;entryX=0.006;entryY=0.667;entryDx=0;entryDy=0;entryPerimeter=0;startSize=30;strokeColor=#788AA3;fillColor=#B2C9AB;fontSize=14;fontColor=#46495D;" edge="1" parent="1" target="9iAkGkI4huCNu9PkeYiP-62">
          <mxGeometry relative="1" as="geometry">
            <mxPoint x="619" y="350" as="sourcePoint" />
          </mxGeometry>
        </mxCell>
        <mxCell id="9iAkGkI4huCNu9PkeYiP-90" style="edgeStyle=orthogonalEdgeStyle;curved=0;rounded=1;sketch=0;orthogonalLoop=1;jettySize=auto;html=1;exitX=0.75;exitY=1;exitDx=0;exitDy=0;entryX=0.5;entryY=0;entryDx=0;entryDy=0;startSize=30;strokeColor=#788AA3;fillColor=#B2C9AB;fontSize=14;fontColor=#46495D;" edge="1" parent="1" source="9iAkGkI4huCNu9PkeYiP-10" target="9iAkGkI4huCNu9PkeYiP-67">
          <mxGeometry relative="1" as="geometry" />
        </mxCell>
        <mxCell id="9iAkGkI4huCNu9PkeYiP-91" value="videoSN" style="text;html=1;align=center;verticalAlign=middle;resizable=0;points=[];autosize=1;fontSize=14;fontColor=#46495D;" vertex="1" parent="1">
          <mxGeometry x="370" y="340" width="70" height="20" as="geometry" />
        </mxCell>
      </root>
    </mxGraphModel>
  </diagram>
</mxfile>
